<?xml version="1.0" encoding="UTF-8" ?>
<!DOCTYPE svg PUBLIC "-//W3C//DTD SVG 1.1//EN" "http://www.w3.org/Graphics/SVG/1.1/DTD/svg11.dtd">
<svg width="1280pt" height="398pt" viewBox="0 0 1280 398" version="1.1" xmlns="http://www.w3.org/2000/svg">
<g id="#e60012ff">
<path fill="#e60012" opacity="1.00" d=" M 193.26 27.09 C 219.13 17.64 246.48 12.19 274.03 11.47 C 300.17 10.97 326.72 14.76 350.86 25.14 C 363.49 30.79 375.82 37.55 386.18 46.84 C 405.52 63.08 419.36 85.61 425.58 110.05 C 428.32 119.50 429.36 129.30 430.08 139.08 C 443.08 98.60 455.99 58.09 468.96 17.60 C 494.63 17.60 520.30 17.60 545.97 17.60 C 525.69 80.82 505.40 144.03 485.12 207.24 C 481.40 218.72 478.13 230.50 472.12 241.05 C 456.16 270.42 426.16 291.99 393.02 296.94 C 378.16 299.31 362.95 298.22 348.31 294.99 C 362.18 283.33 375.22 270.46 385.52 255.49 C 399.02 236.56 408.48 214.83 413.48 192.15 C 417.61 171.07 419.59 149.09 415.13 127.89 C 412.57 113.47 406.80 99.65 398.31 87.71 C 393.07 79.20 385.85 72.18 378.44 65.58 C 366.03 54.92 351.26 47.23 335.70 42.28 C 306.51 32.60 274.83 32.67 244.85 38.45 C 221.99 43.21 199.81 51.27 179.16 62.17 C 134.34 86.23 95.74 123.31 73.46 169.36 C 64.78 187.68 58.88 207.41 56.85 227.61 C 55.18 247.90 57.42 268.82 65.49 287.64 C 74.77 310.06 91.89 329.10 113.02 340.99 C 143.31 358.64 179.80 362.90 214.16 358.68 C 244.02 354.90 272.88 344.76 299.23 330.36 C 299.21 335.49 299.32 340.63 299.16 345.76 C 280.94 356.27 262.00 365.70 241.95 372.18 C 216.90 380.78 190.50 385.57 164.00 385.73 C 149.52 385.97 135.02 384.68 120.89 381.43 C 90.41 375.27 61.32 359.87 41.16 335.91 C 29.33 322.12 20.88 305.60 15.90 288.18 C 13.80 279.24 12.26 270.15 11.47 260.99 C 10.90 247.23 11.63 233.35 14.40 219.84 C 17.99 199.32 25.92 179.82 35.39 161.36 C 47.71 138.13 63.74 116.96 82.12 98.20 C 113.53 66.94 151.58 42.23 193.26 27.09 Z" />
</g>
<g id="#000000ff">
<path fill="#000000" opacity="1.00" d=" M 585.04 17.07 C 610.72 17.07 636.39 17.07 662.07 17.07 C 651.05 52.48 639.94 87.86 628.93 123.28 C 642.90 108.38 661.30 97.91 681.04 92.86 C 695.95 89.56 711.86 87.68 726.74 92.15 C 736.88 94.95 745.49 101.98 751.30 110.63 C 757.80 120.27 759.95 132.61 757.56 143.94 C 756.98 146.64 756.65 149.38 755.93 152.05 C 740.27 200.72 724.72 249.44 709.08 298.13 C 683.24 298.13 657.39 298.14 631.55 298.12 C 645.10 256.02 658.92 214.00 672.34 171.86 C 676.07 160.72 666.58 148.36 655.09 148.26 C 634.29 149.20 615.32 164.20 609.00 183.94 C 596.78 221.94 584.97 260.08 572.89 298.13 C 547.23 298.13 521.58 298.14 495.92 298.12 C 525.61 204.43 555.32 110.75 585.04 17.07 Z" />
<path fill="#000000" opacity="1.00" d=" M 190.68 101.76 C 212.34 90.89 236.98 87.69 260.98 88.07 C 280.03 87.88 299.19 88.86 317.91 92.61 C 334.50 95.89 348.84 107.95 355.50 123.41 C 359.15 131.37 360.02 140.34 359.67 149.00 C 359.30 157.76 355.79 165.91 353.26 174.19 C 342.40 208.28 331.11 242.24 320.64 276.46 C 319.04 281.89 320.03 287.63 321.70 292.91 C 296.97 292.77 272.24 292.97 247.51 292.81 C 243.47 285.61 242.73 276.78 245.33 268.96 C 236.87 276.45 226.76 281.69 216.73 286.71 C 199.57 294.29 180.81 298.63 161.99 298.07 C 148.52 298.06 133.94 297.35 122.44 289.50 C 109.67 280.90 102.12 265.25 103.44 249.90 C 104.74 236.94 110.05 224.34 118.60 214.49 C 123.26 209.54 128.07 204.63 133.61 200.64 C 150.09 189.89 169.31 184.35 188.49 180.77 C 204.78 177.78 221.11 174.96 237.27 171.32 C 250.38 167.80 263.79 165.28 276.51 160.41 C 279.66 154.83 280.62 148.30 279.75 141.98 C 268.90 136.01 256.11 132.83 243.85 135.96 C 230.50 138.20 218.85 146.85 211.74 158.21 C 187.42 155.60 163.10 152.95 138.79 150.32 C 151.00 129.61 169.23 112.59 190.68 101.76 M 201.71 216.77 C 193.43 220.00 186.14 226.70 183.54 235.35 C 180.87 243.24 186.58 252.85 194.83 254.15 C 203.47 255.94 212.35 253.97 220.74 251.83 C 229.36 248.92 237.68 244.59 244.30 238.27 C 255.90 227.97 261.63 213.00 265.37 198.33 C 244.42 205.43 222.18 208.22 201.71 216.77 Z" />
<path fill="#000000" opacity="1.00" d=" M 1105.88 98.84 C 1122.09 92.20 1139.51 88.83 1156.99 88.21 C 1180.75 87.70 1204.75 87.96 1228.09 92.89 C 1246.80 97.13 1262.59 112.41 1267.03 131.12 C 1270.15 142.45 1268.57 154.56 1264.47 165.42 C 1253.85 199.11 1243.47 232.87 1232.61 266.48 C 1231.16 271.31 1229.04 276.01 1228.77 281.12 C 1228.38 285.15 1229.42 289.14 1230.78 292.90 C 1206.02 292.76 1181.26 293.00 1156.50 292.78 C 1152.52 285.56 1151.57 276.81 1154.29 268.99 C 1147.43 275.25 1139.14 279.55 1131.08 284.04 C 1115.89 291.87 1099.05 296.46 1082.03 297.89 C 1072.85 298.14 1063.60 298.43 1054.47 297.26 C 1043.83 296.18 1032.91 292.52 1025.43 284.55 C 1015.14 274.78 1010.44 259.74 1012.85 245.81 C 1016.48 222.66 1033.84 203.42 1054.70 193.77 C 1081.15 181.10 1110.88 179.32 1139.09 172.85 C 1154.68 169.10 1170.45 165.89 1185.55 160.41 C 1188.68 154.67 1189.61 148.02 1188.64 141.60 C 1179.72 137.46 1169.99 134.09 1160.02 134.88 C 1150.06 135.75 1139.99 138.77 1132.19 145.24 C 1127.34 148.72 1124.18 153.87 1120.30 158.29 C 1096.16 155.44 1071.96 153.02 1047.80 150.31 C 1060.92 127.44 1081.65 109.18 1105.88 98.84 M 1135.88 208.55 C 1125.33 211.71 1114.32 214.10 1104.76 219.80 C 1098.03 223.91 1092.58 230.89 1091.92 238.94 C 1091.56 246.85 1098.08 254.28 1105.97 255.00 C 1127.81 256.22 1150.22 245.71 1162.50 227.46 C 1168.73 218.81 1171.50 208.42 1174.36 198.32 C 1161.72 202.41 1148.80 205.51 1135.88 208.55 Z" />
<path fill="#000000" opacity="1.00" d=" M 810.78 89.48 C 836.44 89.45 862.10 89.48 887.76 89.47 C 874.55 130.97 861.25 172.45 848.04 213.96 C 846.33 218.93 846.10 224.57 848.54 229.35 C 851.14 235.38 857.52 239.21 863.96 239.51 C 871.98 239.24 879.68 236.48 886.79 232.90 C 898.28 226.36 907.27 215.26 910.68 202.42 C 922.67 164.74 934.84 127.13 946.92 89.48 C 972.72 89.45 998.53 89.48 1024.33 89.46 C 1002.42 157.25 980.35 225.00 958.41 292.78 C 932.97 292.83 907.52 292.79 882.08 292.80 C 885.01 283.51 887.97 274.24 890.90 264.95 C 878.13 277.78 862.15 287.37 844.91 292.87 C 828.58 297.82 810.88 300.29 794.11 296.00 C 782.88 293.30 773.23 285.54 767.34 275.72 C 762.02 266.07 759.75 254.41 762.38 243.60 C 763.13 240.01 763.51 236.35 764.60 232.84 C 780.02 185.06 795.38 137.26 810.78 89.48 Z" />
<path fill="#000000" opacity="1.00" d=" M 447.41 343.46 C 455.27 331.73 473.71 329.60 484.37 338.62 C 487.41 340.99 488.71 344.74 490.15 348.17 C 486.56 349.06 482.97 349.93 479.37 350.81 C 477.31 341.53 464.07 339.23 458.15 346.06 C 451.94 353.33 451.47 365.08 457.22 372.75 C 461.11 378.05 469.14 379.37 474.53 375.67 C 477.30 373.52 478.48 370.09 479.63 366.93 C 483.21 367.80 486.72 368.93 490.26 369.97 C 488.54 376.89 483.55 383.15 476.67 385.43 C 467.90 388.01 457.36 387.03 450.55 380.45 C 441.03 370.86 440.37 354.65 447.41 343.46 Z" />
<path fill="#000000" opacity="1.00" d=" M 627.51 333.71 C 636.59 331.77 647.06 334.44 652.93 341.94 C 661.09 351.65 661.27 366.82 653.80 376.99 C 644.82 389.58 623.67 390.00 614.22 377.76 C 604.36 366.21 607.06 347.06 618.67 337.71 C 621.20 335.61 624.32 334.40 627.51 333.71 M 629.44 342.69 C 617.88 346.41 615.85 362.77 622.22 371.81 C 626.52 378.46 636.67 379.65 642.67 374.69 C 649.57 368.03 650.46 356.47 645.60 348.40 C 642.37 343.02 635.28 340.98 629.44 342.69 Z" />
<path fill="#000000" opacity="1.00" d=" M 723.45 333.59 C 732.10 331.92 741.82 334.55 747.61 341.40 C 757.07 351.88 756.54 369.69 746.68 379.72 C 736.52 389.87 717.39 388.89 708.84 377.15 C 700.12 366.05 702.30 348.85 712.16 339.19 C 715.24 336.18 719.23 334.31 723.45 333.59 M 724.45 342.71 C 713.06 346.61 711.03 362.64 717.25 371.72 C 721.82 378.77 733.02 379.85 738.79 373.74 C 743.44 368.48 744.76 360.75 743.06 354.03 C 742.03 350.25 740.22 346.27 736.64 344.28 C 733.05 342.02 728.49 341.58 724.45 342.71 Z" />
<path fill="#000000" opacity="1.00" d=" M 766.12 345.26 C 770.00 337.61 778.53 332.77 787.06 333.16 C 792.45 333.19 798.36 333.72 802.64 337.39 C 806.19 340.05 808.25 344.20 809.19 348.47 C 806.35 349.03 803.53 349.59 800.69 350.10 C 797.29 338.98 779.80 339.20 774.90 348.94 C 772.31 354.11 772.30 360.21 773.22 365.81 C 774.12 371.42 778.43 376.39 784.12 377.46 C 790.18 378.29 796.88 377.46 801.72 373.39 C 801.73 371.21 801.73 369.04 801.75 366.88 C 797.14 366.86 792.54 366.87 787.93 366.86 C 787.92 363.93 787.92 361.00 787.93 358.07 C 795.24 358.06 802.55 358.06 809.87 358.07 C 809.87 367.42 809.87 376.78 809.87 386.13 C 807.16 386.13 804.46 386.13 801.77 386.13 C 801.76 385.38 801.75 383.87 801.74 383.12 C 790.58 389.41 773.90 387.58 767.01 375.93 C 761.41 366.79 761.36 354.75 766.12 345.26 Z" />
<path fill="#000000" opacity="1.00" d=" M 348.30 333.87 C 361.66 333.86 375.02 333.86 388.38 333.87 C 388.39 336.82 388.39 339.78 388.38 342.73 C 383.38 342.73 378.39 342.74 373.41 342.72 C 373.31 357.12 373.40 371.52 373.36 385.93 C 369.93 385.93 366.51 385.93 363.09 385.93 C 363.08 371.53 363.10 357.14 363.08 342.74 C 358.16 342.72 353.23 342.74 348.30 342.73 C 348.30 339.77 348.30 336.82 348.30 333.87 Z" />
<path fill="#000000" opacity="1.00" d=" M 398.42 385.92 C 398.51 368.54 398.25 351.15 398.55 333.78 C 410.96 333.98 423.38 333.80 435.80 333.88 C 435.81 336.83 435.81 339.78 435.80 342.73 C 426.75 342.74 417.70 342.72 408.65 342.74 C 408.63 346.56 408.63 350.37 408.65 354.19 C 417.07 354.21 425.48 354.20 433.90 354.20 C 433.91 357.13 433.91 360.06 433.91 362.99 C 425.49 363.01 417.06 362.99 408.64 363.00 C 408.63 367.71 408.63 372.42 408.65 377.13 C 418.03 377.14 427.41 377.12 436.79 377.14 C 436.79 380.07 436.79 383.00 436.79 385.93 C 424.00 385.93 411.21 385.94 398.42 385.92 Z" />
<path fill="#000000" opacity="1.00" d=" M 500.20 333.88 C 503.62 333.86 507.04 333.86 510.46 333.87 C 510.48 340.73 510.46 347.60 510.48 354.46 C 518.17 354.47 525.86 354.47 533.56 354.46 C 533.57 347.60 533.55 340.74 533.57 333.87 C 536.89 333.86 540.22 333.86 543.56 333.88 C 543.56 351.23 543.55 368.57 543.57 385.92 C 540.23 385.93 536.90 385.94 533.57 385.93 C 533.55 378.38 533.56 370.82 533.56 363.27 C 525.86 363.26 518.17 363.26 510.47 363.27 C 510.47 370.83 510.48 378.38 510.47 385.93 C 507.04 385.93 503.61 385.93 500.19 385.93 C 500.20 368.58 500.19 351.23 500.20 333.88 Z" />
<path fill="#000000" opacity="1.00" d=" M 555.95 333.87 C 558.89 333.86 561.84 333.86 564.78 333.87 C 572.75 345.49 580.66 357.14 588.63 368.75 C 588.65 357.12 588.62 345.50 588.64 333.87 C 591.82 333.86 595.00 333.86 598.18 333.87 C 598.19 351.23 598.19 368.58 598.18 385.93 C 595.08 385.93 591.99 385.93 588.89 385.95 C 581.05 374.70 573.30 363.39 565.49 352.12 C 565.48 363.39 565.50 374.66 565.48 385.93 C 562.30 385.93 559.13 385.93 555.95 385.93 C 555.94 368.58 555.94 351.22 555.95 333.87 Z" />
<path fill="#000000" opacity="1.00" d=" M 667.29 334.40 C 670.72 334.39 674.14 334.40 677.57 334.40 C 677.58 348.65 677.56 362.89 677.58 377.13 C 685.20 377.14 692.82 377.13 700.44 377.13 C 700.44 380.06 700.45 383.00 700.44 385.93 C 689.39 385.93 678.34 385.94 667.29 385.93 C 667.30 368.75 667.28 351.58 667.29 334.40 Z" />
<path fill="#000000" opacity="1.00" d=" M 812.49 333.88 C 816.42 333.86 820.35 333.89 824.29 333.82 C 828.33 340.60 832.08 347.55 836.07 354.36 C 840.06 347.58 843.84 340.68 847.79 333.87 C 851.67 333.86 855.55 333.86 859.44 333.88 C 853.43 344.04 847.04 354.00 841.22 364.26 C 840.84 371.47 841.20 378.71 841.07 385.93 C 837.65 385.93 834.24 385.93 830.84 385.93 C 830.81 379.24 830.84 372.56 830.84 365.87 C 831.07 363.76 829.64 362.08 828.66 360.38 C 823.23 351.57 817.87 342.72 812.49 333.88 Z" />
</g>
</svg>
