<?xml version="1.0" encoding="UTF-8" ?>
<!DOCTYPE svg PUBLIC "-//W3C//DTD SVG 1.1//EN" "http://www.w3.org/Graphics/SVG/1.1/DTD/svg11.dtd">
<svg width="480pt" height="196pt" viewBox="38 99 480 196" version="1.1" xmlns="http://www.w3.org/2000/svg">
<g id="#ff0000ff">
<path fill="#ff0000" opacity="1.00" d=" M 45.08 105.14 C 91.00 105.12 136.93 104.99 182.85 105.20 C 182.91 118.05 182.93 130.89 182.84 143.73 C 154.83 143.97 126.81 143.82 98.80 143.80 C 99.15 155.25 98.87 166.70 98.96 178.14 C 126.89 178.23 154.82 177.99 182.75 178.26 C 183.01 190.43 182.93 202.61 182.79 214.79 C 154.85 215.08 126.90 214.83 98.96 214.92 C 98.95 226.53 98.97 238.15 98.95 249.77 C 120.63 249.48 142.32 249.72 164.00 249.64 C 170.31 249.73 176.64 249.41 182.94 249.87 C 182.77 262.84 183.03 275.82 182.81 288.79 C 136.90 288.96 91.00 288.86 45.10 288.84 C 44.92 227.61 44.96 166.37 45.08 105.14 Z" />
<path fill="#ff0000" opacity="1.00" d=" M 255.51 105.12 C 271.94 104.94 288.37 105.01 304.80 105.09 C 314.27 129.58 323.14 154.30 331.95 179.03 C 334.16 184.28 336.00 189.68 337.82 195.08 C 341.37 205.97 345.80 216.54 349.55 227.36 C 353.39 238.68 357.72 249.83 361.91 261.03 C 364.83 270.45 368.59 279.60 372.01 288.86 C 354.20 289.03 336.38 289.06 318.57 288.84 C 314.62 275.68 309.42 262.95 304.84 250.00 C 288.54 249.99 272.23 250.00 255.92 250.00 C 251.08 262.92 246.31 275.88 241.87 288.95 C 224.19 288.90 206.51 289.13 188.84 288.83 C 192.60 278.25 196.70 267.78 200.29 257.13 C 206.32 241.94 211.22 226.35 217.25 211.17 C 218.42 207.70 219.97 204.35 220.95 200.81 C 224.36 189.91 228.72 179.33 232.58 168.58 C 234.44 161.77 237.41 155.33 239.70 148.66 C 244.78 134.08 250.59 119.76 255.51 105.12 M 281.20 169.45 C 277.18 179.31 273.05 189.14 269.07 199.02 C 267.29 204.17 265.15 209.18 262.88 214.13 C 274.39 214.17 285.89 214.16 297.39 214.13 C 295.07 207.90 292.61 201.70 290.72 195.32 C 287.66 186.65 284.27 178.11 281.20 169.45 Z" />
<path fill="#ff0000" opacity="1.00" d=" M 378.25 105.14 C 423.80 104.92 469.37 105.03 514.93 105.09 C 515.04 118.01 515.06 130.93 514.92 143.84 C 486.94 143.96 458.97 143.85 430.99 143.90 C 430.94 155.40 431.03 166.91 430.94 178.42 C 434.93 177.78 438.98 178.08 443.00 178.03 C 466.96 178.09 490.92 177.91 514.88 178.12 C 515.09 190.38 515.04 202.64 514.91 214.90 C 486.93 215.03 458.94 215.09 430.96 214.86 C 431.04 226.47 430.87 238.07 431.06 249.67 C 459.03 249.52 487.01 249.50 514.98 249.68 C 514.96 262.75 515.11 275.83 514.91 288.90 C 469.38 288.97 423.84 289.06 378.31 288.86 C 378.17 227.62 378.30 166.38 378.25 105.14 Z" />
</g>
</svg>
