<?xml version="1.0" encoding="UTF-8" ?>
<!DOCTYPE svg PUBLIC "-//W3C//DTD SVG 1.1//EN" "http://www.w3.org/Graphics/SVG/1.1/DTD/svg11.dtd">
<svg width="480pt" height="176pt" viewBox="0 152 480 176" version="1.1" xmlns="http://www.w3.org/2000/svg">
<g id="#0155ccff">
<path fill="#0155cc" opacity="1.00" d=" M 0.00 160.06 C 16.00 160.06 32.00 160.06 48.01 160.06 C 52.98 160.08 58.01 159.80 62.92 160.83 C 75.57 163.25 86.80 171.93 92.50 183.47 C 98.00 194.22 98.69 207.26 94.36 218.53 C 90.36 229.44 81.68 238.34 71.07 242.99 C 81.21 256.68 91.44 270.30 101.57 284.00 C 94.80 284.01 88.03 284.04 81.26 283.98 C 72.12 271.66 62.96 259.35 53.77 247.07 C 52.98 245.82 51.26 246.38 50.05 246.20 C 39.07 246.26 28.08 246.22 17.10 246.23 C 17.09 258.82 17.10 271.41 17.09 284.00 C 11.39 284.02 5.70 284.01 0.00 284.01 L 0.00 160.06 M 17.09 176.05 C 17.09 194.11 17.08 212.16 17.10 230.22 C 29.08 230.32 41.07 230.23 53.05 230.26 C 61.35 230.19 69.60 226.27 74.57 219.57 C 81.35 210.99 81.99 198.19 76.14 188.95 C 71.38 181.00 62.26 175.93 53.00 176.05 C 41.03 176.05 29.06 176.06 17.09 176.05 Z" />
<path fill="#0155cc" opacity="1.00" d=" M 198.36 192.47 C 204.54 192.45 210.71 192.48 216.89 192.44 C 227.40 215.84 237.71 239.34 248.20 262.75 C 258.39 239.35 268.41 215.87 278.55 192.45 C 284.55 192.47 290.55 192.46 296.55 192.46 C 278.32 234.98 259.89 277.41 241.64 319.92 C 235.61 319.95 229.57 319.94 223.54 319.94 C 228.74 307.97 233.91 295.99 239.05 284.00 C 225.48 253.49 211.94 222.97 198.36 192.47 Z" />
<path fill="#0155cc" opacity="1.00" d=" M 297.57 221.85 C 303.61 205.21 320.15 192.91 337.93 192.49 C 352.56 192.41 367.19 192.49 381.83 192.46 C 381.84 197.78 381.84 203.11 381.83 208.43 C 368.54 208.48 355.24 208.45 341.95 208.45 C 336.54 208.37 331.11 209.69 326.43 212.41 C 316.82 217.82 310.83 228.92 311.57 239.93 C 312.10 250.64 318.91 260.78 328.70 265.20 C 333.13 267.32 338.09 268.13 342.98 268.05 C 355.92 267.97 368.85 268.00 381.80 267.96 C 381.87 273.31 381.82 278.66 381.84 284.02 C 367.54 283.98 353.25 284.05 338.96 284.00 C 325.52 283.90 312.43 277.19 304.26 266.57 C 294.50 254.15 291.86 236.59 297.57 221.85 Z" />
<path fill="#0155cc" opacity="1.00" d=" M 404.91 206.92 C 413.07 198.04 424.91 192.57 437.01 192.47 C 451.34 192.44 465.67 192.47 480.00 192.46 L 480.00 208.45 C 466.32 208.47 452.64 208.43 438.97 208.46 C 428.85 208.53 419.00 214.20 413.90 222.95 C 408.08 232.44 408.31 245.21 414.50 254.47 C 419.72 262.66 429.21 267.90 438.92 267.99 C 452.61 268.02 466.31 267.94 480.00 268.05 L 480.00 284.02 C 469.02 283.93 458.04 284.04 447.06 284.01 C 439.41 284.04 431.55 284.41 424.21 281.87 C 409.51 277.28 397.84 264.61 394.18 249.70 C 390.21 234.84 394.45 218.17 404.91 206.92 Z" />
<path fill="#0155cc" opacity="1.00" d=" M 122.41 201.43 C 130.02 195.70 139.47 192.43 149.00 192.45 C 163.14 192.47 177.27 192.45 191.41 192.46 C 191.40 197.79 191.41 203.12 191.40 208.45 C 177.38 208.49 163.35 208.38 149.32 208.50 C 135.63 208.92 123.36 220.05 121.45 233.59 C 119.73 244.04 124.09 255.14 132.45 261.63 C 137.41 265.51 143.62 267.80 149.94 267.99 C 163.76 268.03 177.59 267.87 191.41 268.02 C 191.39 273.35 191.41 278.68 191.40 284.02 C 176.95 283.96 162.50 284.07 148.04 283.99 C 137.07 283.76 126.31 279.19 118.39 271.61 C 108.76 262.55 103.51 249.13 104.22 235.94 C 104.80 222.51 111.61 209.45 122.41 201.43 Z" />
</g>
<g id="#00dda4ff">
<path fill="#00dda4" opacity="1.00" d=" M 141.11 230.42 C 157.30 230.38 173.49 230.41 189.68 230.40 C 189.68 235.63 189.70 240.85 189.67 246.07 C 173.48 246.10 157.29 246.07 141.10 246.09 C 141.10 240.87 141.08 235.64 141.11 230.42 Z" />
<path fill="#00dda4" opacity="1.00" d=" M 331.51 230.42 C 347.72 230.39 363.93 230.40 380.14 230.41 C 380.15 235.63 380.15 240.86 380.14 246.08 C 363.93 246.09 347.71 246.08 331.50 246.09 C 331.50 240.86 331.49 235.64 331.51 230.42 Z" />
<path fill="#00dda4" opacity="1.00" d=" M 429.65 230.41 C 445.86 230.40 462.07 230.40 478.29 230.41 C 478.28 235.63 478.29 240.85 478.28 246.08 C 462.07 246.09 445.86 246.10 429.65 246.08 C 429.64 240.85 429.65 235.63 429.65 230.41 Z" />
</g>
</svg>
