<?xml version="1.0" encoding="UTF-8" ?>
<!DOCTYPE svg PUBLIC "-//W3C//DTD SVG 1.1//EN" "http://www.w3.org/Graphics/SVG/1.1/DTD/svg11.dtd">
<svg width="425pt" height="119pt" viewBox="0 0 425 119" version="1.1" xmlns="http://www.w3.org/2000/svg">
<g id="#ffffffff">
</g>
<g id="#4594d1ff">
<path fill="#4594d1" opacity="1.00" d=" M 74.93 5.93 C 87.54 0.83 101.48 -0.36 114.94 0.78 C 121.39 1.76 129.29 3.06 132.69 9.39 C 136.23 15.72 132.03 26.48 124.00 26.05 C 117.56 25.99 111.12 25.94 104.68 26.07 C 107.10 21.17 109.50 16.25 112.03 11.40 C 105.16 11.93 98.13 11.68 91.41 13.36 C 87.61 14.74 88.54 19.49 89.50 22.50 C 92.63 35.68 100.32 48.07 99.11 62.02 C 98.56 70.41 92.89 77.68 85.59 81.49 C 67.38 91.25 45.43 92.73 25.62 87.42 C 18.14 85.40 10.00 83.36 4.62 77.35 C 1.78 74.42 0.53 70.41 0.00 66.45 L 0.00 62.53 C 0.71 57.45 3.40 52.36 8.27 50.20 C 17.55 46.05 27.88 44.59 37.99 44.74 C 46.46 45.01 54.96 44.40 63.40 45.37 C 61.56 48.50 59.58 52.00 55.90 53.16 C 46.79 56.12 35.84 53.36 27.97 59.96 C 23.66 63.61 24.05 71.09 28.44 74.51 C 35.51 80.21 45.12 81.52 53.91 80.70 C 61.21 79.77 69.03 76.38 72.37 69.42 C 75.11 63.96 73.54 57.66 71.87 52.14 C 68.99 43.21 66.20 34.22 64.29 25.02 C 62.48 17.15 67.61 8.85 74.93 5.93 Z" />
<path fill="#4594d1" opacity="1.00" d=" M 139.22 18.10 C 140.08 15.79 141.01 12.38 144.08 12.45 C 150.51 12.12 156.95 12.47 163.39 12.41 C 157.50 29.50 150.96 46.39 145.57 63.64 C 151.30 59.72 156.57 55.18 162.04 50.92 C 167.68 46.69 175.09 43.91 182.13 45.89 C 184.38 46.27 185.93 48.46 185.84 50.69 C 185.66 54.00 184.32 57.11 183.17 60.18 C 180.92 65.65 179.05 71.27 177.50 76.98 C 183.98 77.01 190.47 76.99 196.96 77.00 C 196.96 70.75 195.60 63.81 199.21 58.23 C 203.15 51.53 210.75 48.16 218.09 46.67 C 229.06 44.50 240.80 44.78 251.32 48.82 C 259.28 51.71 259.85 64.47 252.31 68.22 C 245.55 71.53 238.36 73.89 231.51 77.01 C 238.97 78.20 246.51 76.94 254.01 77.42 C 256.88 77.36 260.50 78.07 262.61 75.59 C 264.38 72.75 265.12 69.42 266.26 66.30 C 271.86 50.21 277.74 34.23 283.18 18.09 C 284.11 15.87 284.93 12.50 287.95 12.56 C 294.29 12.39 300.65 12.76 307.00 12.33 C 299.55 33.61 291.76 54.77 284.29 76.05 C 290.54 76.08 296.80 76.01 303.05 76.07 C 304.78 73.33 306.25 70.42 307.22 67.31 C 313.25 50.89 319.31 34.48 324.90 17.90 C 325.73 16.04 326.34 13.07 328.88 13.01 C 335.41 12.87 341.95 13.16 348.49 12.81 C 341.01 34.11 333.27 55.31 325.71 76.57 C 331.22 76.36 336.79 77.05 342.27 76.28 C 343.75 75.34 344.19 73.42 344.90 71.91 C 347.55 64.51 350.30 57.15 352.70 49.66 C 353.38 48.01 353.99 45.58 356.18 45.51 C 363.14 45.17 370.11 45.58 377.08 45.45 C 373.31 55.96 369.49 66.46 365.78 77.00 C 369.89 76.98 374.00 77.00 378.12 77.02 C 382.72 67.50 384.92 57.00 389.31 47.40 C 390.02 45.45 392.23 45.47 393.94 45.42 C 399.68 45.33 405.41 45.50 411.15 45.43 C 407.34 55.89 403.72 66.42 400.26 77.00 C 408.51 77.01 416.75 76.96 425.00 77.03 L 425.00 78.34 C 423.26 81.98 420.41 85.44 416.29 86.37 C 410.32 87.59 404.17 86.11 398.20 87.18 C 396.28 88.34 395.55 90.69 394.48 92.56 C 390.89 99.64 387.83 107.39 381.83 112.84 C 376.23 117.78 368.26 119.33 361.02 118.29 C 354.55 117.50 349.72 111.29 349.45 104.97 C 348.93 98.48 352.69 92.85 355.44 87.29 C 350.91 86.01 346.18 84.22 341.44 85.54 C 331.49 88.01 321.14 87.26 311.07 86.09 C 304.35 85.25 297.69 86.87 290.97 86.83 C 248.66 86.85 206.35 86.80 164.03 86.85 C 161.00 86.76 157.58 86.76 155.13 84.70 C 153.91 82.36 154.69 79.69 155.24 77.29 C 156.49 72.74 158.08 68.30 159.46 63.80 C 152.18 69.72 144.83 75.57 137.99 82.01 C 131.79 87.74 122.79 86.79 115.03 86.47 C 117.70 78.16 120.82 70.02 123.96 61.88 C 129.18 47.34 134.46 32.81 139.22 18.10 M 223.70 55.65 C 221.01 60.72 219.42 66.42 218.13 72.00 C 217.71 75.89 222.31 76.76 225.16 77.36 C 226.80 78.00 228.90 77.34 229.45 75.56 C 232.19 68.86 234.10 61.83 237.00 55.19 C 232.58 55.35 228.05 54.63 223.70 55.65 M 362.39 101.98 C 362.15 104.84 364.35 106.97 366.13 108.90 C 368.29 101.83 371.19 95.03 373.68 88.07 C 367.02 89.26 363.07 95.67 362.39 101.98 Z" />
</g>
</svg>
