<?xml version="1.0" encoding="UTF-8" ?>
<!DOCTYPE svg PUBLIC "-//W3C//DTD SVG 1.1//EN" "http://www.w3.org/Graphics/SVG/1.1/DTD/svg11.dtd">
<svg width="2057pt" height="608pt" viewBox="0 0 2057 608" version="1.1" xmlns="http://www.w3.org/2000/svg">
<g id="#000000ff">
<path fill="#000000" opacity="1.00" d=" M 441.32 17.84 C 448.24 11.89 455.27 6.06 462.27 0.21 C 492.43 35.95 511.10 81.26 514.48 127.94 C 517.74 169.78 509.23 212.53 489.68 249.70 C 482.06 264.29 472.85 278.03 462.28 290.63 C 455.26 284.78 448.23 278.95 441.31 272.99 C 470.42 238.24 487.58 193.45 487.76 148.01 C 488.25 119.08 482.27 90.03 470.19 63.73 C 462.72 47.21 452.82 31.84 441.32 17.84 Z" />
<path fill="#000000" opacity="1.00" d=" M 389.48 61.25 C 396.53 55.45 403.39 49.42 410.52 43.72 C 427.25 63.89 439.24 88.07 444.35 113.82 C 450.06 142.12 448.00 171.98 438.14 199.14 C 431.80 216.60 422.37 232.97 410.36 247.15 C 403.44 241.20 396.37 235.43 389.43 229.50 C 407.91 207.66 418.95 179.61 420.02 151.00 C 421.62 118.62 410.27 86.05 389.48 61.25 Z" />
<path fill="#000000" opacity="1.00" d=" M 337.61 104.81 C 344.59 98.88 351.65 93.03 358.66 87.13 C 371.83 102.99 379.69 123.31 379.77 143.99 C 380.28 165.57 372.61 187.27 358.54 203.65 C 351.62 197.73 344.59 191.96 337.65 186.07 C 348.44 173.15 354.03 155.89 352.16 139.09 C 350.95 126.53 345.71 114.47 337.61 104.81 Z" />
<path fill="#000000" opacity="1.00" d=" M 0.74 110.53 C 95.15 110.44 189.57 110.53 283.98 110.49 C 284.02 134.25 284.00 158.00 283.99 181.76 C 213.66 181.75 143.34 181.75 73.01 181.76 C 73.00 228.76 72.99 275.76 73.01 322.75 C 143.34 322.74 213.67 322.75 283.99 322.75 C 284.01 417.84 283.99 512.92 284.00 608.00 L 0.75 608.00 C 0.76 583.75 0.73 559.50 0.76 535.25 C 71.76 535.24 142.75 535.27 213.75 535.23 C 213.75 488.66 213.74 442.09 213.75 395.52 C 142.75 395.46 71.75 395.55 0.75 395.47 C 0.75 300.49 0.76 205.51 0.74 110.53 Z" />
<path fill="#000000" opacity="1.00" d=" M 1064.01 322.75 C 1158.83 322.74 1253.66 322.75 1348.48 322.75 C 1348.54 417.48 1348.45 512.21 1348.53 606.95 C 1253.69 607.07 1158.84 606.97 1064.00 607.00 C 1064.00 512.25 1063.99 417.50 1064.01 322.75 M 1136.00 394.76 C 1136.00 441.84 1136.00 488.92 1136.00 536.00 C 1183.08 536.00 1230.16 536.00 1277.24 536.00 C 1277.25 488.92 1277.25 441.84 1277.24 394.76 C 1230.16 394.74 1183.08 394.75 1136.00 394.76 Z" />
<path fill="#000000" opacity="1.00" d=" M 354.50 324.50 C 449.25 324.49 544.00 324.50 638.74 324.50 C 638.77 418.66 638.74 512.83 638.76 606.99 C 543.99 606.97 449.22 607.09 354.46 606.93 C 354.55 512.79 354.47 418.65 354.50 324.50 M 425.00 394.76 C 425.00 441.84 425.00 488.92 425.00 536.00 C 473.00 536.00 521.00 536.00 569.00 536.00 C 569.00 488.92 569.00 441.84 569.00 394.76 C 521.00 394.75 473.00 394.75 425.00 394.76 Z" />
<path fill="#000000" opacity="1.00" d=" M 709.26 324.50 C 803.92 324.51 898.59 324.48 993.25 324.51 C 993.25 418.42 993.26 512.33 993.24 606.24 C 969.67 606.26 946.09 606.24 922.52 606.25 C 922.46 535.76 922.53 465.26 922.49 394.76 C 875.07 394.75 827.66 394.74 780.25 394.77 C 780.25 465.26 780.26 535.75 780.24 606.24 C 756.58 606.25 732.91 606.26 709.25 606.24 C 709.26 512.32 709.23 418.41 709.26 324.50 Z" />
<path fill="#000000" opacity="1.00" d=" M 1418.00 324.00 C 1513.00 324.00 1608.00 324.00 1703.00 324.00 C 1703.00 347.59 1703.01 371.17 1702.99 394.76 C 1632.18 394.75 1561.38 394.75 1490.57 394.76 C 1489.92 418.08 1489.47 441.42 1489.26 464.75 C 1560.50 464.76 1631.75 464.74 1702.99 464.75 C 1703.00 488.42 1703.01 512.09 1702.99 535.76 C 1632.16 535.75 1561.34 535.75 1490.51 535.76 C 1490.49 559.84 1490.51 583.92 1490.50 608.00 L 1419.62 608.00 C 1419.11 513.33 1418.46 418.67 1418.00 324.00 Z" />
<path fill="#000000" opacity="1.00" d=" M 1772.00 324.00 C 1867.00 324.00 1962.00 324.00 2057.00 324.00 L 2057.00 394.75 C 1986.08 394.79 1915.17 394.69 1844.25 394.80 C 1844.03 418.12 1843.56 441.44 1842.96 464.75 C 1914.31 464.75 1985.65 464.75 2057.00 464.75 L 2057.00 535.75 C 1986.17 535.76 1915.34 535.74 1844.51 535.76 C 1844.49 559.84 1844.51 583.92 1844.50 608.00 L 1773.50 608.00 C 1773.50 570.32 1772.93 532.65 1772.99 494.97 C 1772.36 477.98 1773.13 460.96 1772.50 443.97 C 1772.57 403.98 1771.91 364.00 1772.00 324.00 Z" />
</g>
</svg>
