<?xml version="1.0" encoding="UTF-8" ?>
<!DOCTYPE svg PUBLIC "-//W3C//DTD SVG 1.1//EN" "http://www.w3.org/Graphics/SVG/1.1/DTD/svg11.dtd">
<svg width="1560pt" height="780pt" viewBox="0 0 1560 780" version="1.1" xmlns="http://www.w3.org/2000/svg">
<g id="#ff4800ff">
<path fill="#ff4800" opacity="1.00" d=" M 20.74 0.00 L 1358.47 0.00 C 1398.84 0.60 1439.86 10.00 1474.17 31.89 C 1492.48 43.77 1508.74 58.85 1521.70 76.42 C 1543.30 106.20 1555.23 142.28 1558.67 178.73 C 1559.38 186.27 1559.77 193.83 1560.00 201.40 L 1560.00 758.42 C 1559.19 770.05 1548.90 779.54 1537.36 780.00 L 201.49 780.00 C 179.72 779.35 157.84 776.88 136.88 770.78 C 119.08 765.33 101.66 758.19 86.02 748.00 C 53.86 727.97 29.18 696.77 15.48 661.57 C 5.06 635.23 0.56 606.85 0.00 578.61 L 0.00 21.61 C 0.75 10.63 9.81 1.23 20.74 0.00 M 1312.59 85.85 C 1296.18 87.58 1280.25 92.49 1265.25 99.25 C 1254.05 105.38 1250.38 121.25 1256.93 132.01 C 1259.44 136.07 1263.01 139.36 1266.94 142.03 C 1272.91 145.49 1280.57 145.91 1286.86 143.01 C 1315.34 128.45 1350.72 128.44 1379.19 143.04 C 1396.30 151.83 1411.79 164.26 1422.83 180.12 C 1435.69 198.66 1441.98 221.48 1441.13 243.97 C 1441.00 250.28 1439.52 256.71 1441.45 262.90 C 1443.43 269.35 1446.20 276.06 1451.65 280.35 C 1457.05 284.29 1464.32 284.09 1470.48 282.26 C 1476.68 280.27 1481.69 275.39 1484.70 269.70 C 1488.28 263.06 1487.38 255.27 1487.72 248.01 C 1488.22 199.39 1467.60 150.19 1430.07 118.75 C 1397.63 92.36 1354.02 80.24 1312.59 85.85 M 1294.80 187.11 C 1294.14 187.15 1292.84 187.23 1292.19 187.27 C 1286.93 191.44 1282.35 196.88 1280.63 203.49 C 1276.11 218.06 1289.41 235.28 1304.92 233.33 C 1310.75 233.58 1315.34 229.34 1321.02 228.88 C 1330.31 227.61 1340.45 231.25 1346.35 238.65 C 1351.46 245.95 1352.40 255.35 1351.64 264.01 C 1351.50 275.83 1362.83 285.08 1373.97 286.01 C 1384.53 286.87 1394.14 279.12 1397.58 269.48 C 1404.02 245.29 1396.40 217.92 1378.90 200.10 C 1356.95 179.47 1321.89 173.41 1294.80 187.11 M 210.89 191.85 C 203.83 198.19 198.99 207.09 197.80 216.52 C 196.89 233.61 195.84 250.69 194.86 267.77 C 182.24 267.78 169.61 267.64 156.99 267.84 C 143.45 268.15 130.17 275.77 123.70 287.76 C 117.56 298.68 118.57 312.72 124.64 323.45 C 130.67 333.60 142.10 340.37 153.94 340.51 C 167.62 340.49 181.31 340.51 194.99 340.50 C 194.05 362.98 193.35 385.46 192.46 407.94 C 191.80 425.60 192.70 443.50 197.57 460.58 C 203.77 483.38 215.71 504.75 232.45 521.49 C 257.22 546.94 292.58 561.47 328.03 561.51 C 342.68 561.48 357.34 561.52 371.99 561.49 C 383.79 560.89 395.14 554.58 402.00 544.98 C 411.51 531.52 409.66 511.59 398.27 499.81 C 391.89 492.75 382.38 489.01 372.95 488.82 C 358.72 488.60 344.49 488.89 330.26 488.68 C 313.31 488.43 296.57 481.42 284.66 469.33 C 272.65 457.45 265.78 440.83 265.14 424.02 C 265.26 395.35 265.17 366.67 265.19 338.00 C 298.81 337.99 332.42 338.02 366.03 337.99 C 379.63 338.07 393.33 331.17 400.52 319.50 C 408.89 305.98 406.42 287.04 395.25 275.85 C 388.56 268.71 378.67 265.26 369.02 265.27 C 335.24 265.21 301.45 265.28 267.67 265.23 C 268.54 250.15 269.42 235.08 270.30 220.00 C 270.46 213.45 269.17 206.79 266.12 200.96 C 260.93 190.81 250.49 183.52 239.11 182.41 C 228.87 180.69 218.23 184.69 210.89 191.85 M 1182.57 263.73 C 1160.60 266.59 1139.33 274.57 1120.86 286.78 C 1077.56 314.58 1049.03 365.22 1050.35 416.98 C 1050.47 445.41 1059.38 473.87 1076.14 496.90 C 1085.91 510.63 1098.55 522.13 1112.59 531.36 C 1137.22 547.23 1166.90 554.86 1196.12 553.57 C 1207.12 552.16 1217.50 546.01 1223.84 536.88 C 1233.20 523.22 1231.10 503.18 1219.39 491.57 C 1212.92 484.64 1203.40 481.20 1194.04 481.04 C 1181.79 481.05 1169.37 478.36 1158.66 472.28 C 1144.57 464.49 1133.05 451.79 1127.47 436.61 C 1121.81 422.00 1121.89 405.53 1126.30 390.60 C 1132.28 369.92 1147.38 352.05 1166.82 342.80 C 1184.87 334.16 1206.46 333.09 1225.08 340.60 C 1244.07 347.55 1259.15 363.71 1265.48 382.84 C 1268.20 390.93 1269.07 399.55 1268.77 408.06 C 1267.86 438.53 1267.13 468.99 1266.25 499.45 C 1265.78 508.42 1265.86 517.82 1269.85 526.08 C 1272.93 532.88 1278.66 538.09 1285.03 541.81 C 1298.68 548.77 1316.19 546.68 1328.01 536.98 C 1336.65 530.50 1341.68 519.74 1341.59 508.98 C 1341.56 474.43 1341.69 439.87 1341.52 405.32 C 1341.49 385.89 1338.17 366.37 1330.67 348.39 C 1316.79 314.52 1288.99 286.41 1254.88 272.91 C 1232.17 263.51 1206.89 260.72 1182.57 263.73 M 474.58 268.76 C 459.23 271.87 445.80 285.16 444.68 301.12 C 443.77 331.92 443.10 362.72 442.29 393.51 C 441.87 405.00 441.76 416.49 442.02 427.99 C 442.79 449.81 446.98 471.77 456.32 491.62 C 462.60 505.44 471.73 517.92 482.83 528.26 C 495.28 539.37 510.11 547.88 526.15 552.59 C 541.88 557.70 558.55 559.26 575.02 559.01 C 594.82 558.89 614.67 555.01 632.78 546.88 C 646.42 540.36 659.17 531.63 669.24 520.28 C 681.19 507.55 689.76 491.99 695.83 475.71 C 703.47 454.65 706.97 432.19 707.19 409.83 C 709.83 375.19 712.22 340.52 714.87 305.88 C 715.52 293.69 709.94 281.22 699.85 274.21 C 684.95 263.87 662.90 266.37 650.24 279.19 C 643.81 285.34 639.67 294.05 639.61 303.00 C 638.58 341.03 637.65 379.06 636.70 417.09 C 635.23 433.41 631.26 450.09 621.69 463.67 C 612.16 477.47 595.61 485.74 578.95 486.12 C 566.20 486.85 552.64 484.61 542.24 476.76 C 532.25 469.58 525.64 458.55 522.04 446.95 C 517.34 431.81 516.91 415.75 517.51 400.03 C 518.34 369.70 518.98 339.36 519.86 309.03 C 520.15 303.27 519.79 297.39 517.93 291.90 C 515.11 283.43 509.01 275.99 501.03 271.93 C 493.00 267.61 483.40 266.97 474.58 268.76 M 768.64 280.63 C 762.09 286.34 757.54 294.48 756.73 303.19 C 754.95 340.49 752.96 377.78 751.27 415.09 C 750.50 432.35 751.40 449.78 755.65 466.59 C 760.68 486.62 769.84 505.87 783.61 521.38 C 805.77 547.45 840.09 561.64 874.04 561.51 C 887.73 561.64 901.76 560.49 914.57 555.32 C 922.63 551.97 929.75 546.74 936.04 540.73 C 935.36 546.67 934.39 552.65 932.08 558.20 C 927.25 570.58 917.41 580.60 905.77 586.80 C 890.66 595.28 873.03 597.72 855.94 598.12 C 842.76 598.55 829.94 605.92 823.41 617.45 C 818.93 624.78 818.56 633.60 818.87 641.95 C 819.51 650.54 823.89 658.82 830.96 663.84 C 837.63 669.21 846.51 671.33 854.96 670.68 C 883.53 670.47 912.15 663.24 937.03 649.11 C 954.98 639.20 970.69 625.21 982.52 608.47 C 995.65 590.24 1003.46 568.41 1005.72 546.11 C 1010.19 465.39 1014.78 384.66 1019.33 303.94 C 1020.03 293.19 1014.68 282.33 1005.68 276.40 C 990.83 266.64 969.38 269.43 956.99 281.98 C 950.52 288.20 946.40 297.00 946.39 306.03 C 944.55 344.35 942.54 382.68 940.77 421.00 C 939.48 433.11 936.68 445.20 931.09 456.09 C 924.35 470.05 912.09 481.60 897.13 486.13 C 883.18 490.06 867.63 489.90 854.43 483.49 C 840.60 476.52 831.18 462.80 827.22 448.07 C 822.71 432.47 823.96 416.06 824.75 400.07 C 826.35 368.04 827.88 336.01 829.53 303.98 C 829.96 295.82 827.23 287.44 821.62 281.43 C 808.27 266.54 782.88 267.51 768.64 280.63 Z" />
</g>
</svg>
