<?xml version="1.0" encoding="UTF-8" ?>
<!DOCTYPE svg PUBLIC "-//W3C//DTD SVG 1.1//EN" "http://www.w3.org/Graphics/SVG/1.1/DTD/svg11.dtd">
<svg width="2398pt" height="517pt" viewBox="0 0 2398 517" version="1.1" xmlns="http://www.w3.org/2000/svg">
<g id="#000000ff">
<path fill="#000000" opacity="1.00" d=" M 1900.23 1.34 C 1917.95 -1.55 1937.20 0.49 1952.42 10.64 C 1962.36 17.16 1970.13 27.16 1973.37 38.65 C 1977.28 53.75 1974.58 70.68 1965.33 83.37 C 1955.53 97.56 1939.07 106.10 1922.20 108.32 C 1904.74 110.76 1885.92 108.02 1871.25 97.77 C 1861.16 90.74 1853.46 80.03 1850.87 67.92 C 1847.68 52.23 1851.44 35.06 1861.74 22.66 C 1871.16 10.85 1885.52 3.84 1900.23 1.34 Z" />
<path fill="#000000" opacity="1.00" d=" M 187.61 3.78 C 210.71 0.35 235.02 4.91 254.99 17.12 C 272.92 27.83 287.32 44.33 295.43 63.57 C 303.23 81.94 305.22 102.69 301.09 122.21 C 296.62 144.01 284.32 164.01 267.17 178.15 C 251.68 191.05 232.19 199.03 212.11 200.79 C 189.25 203.00 165.69 197.14 146.62 184.33 C 126.26 170.90 111.07 149.74 105.24 126.02 C 99.41 103.08 102.16 78.03 113.10 57.02 C 127.41 28.62 156.15 8.21 187.61 3.78 Z" />
<path fill="#000000" opacity="1.00" d=" M 360.71 113.39 C 367.16 83.86 373.43 54.29 379.86 24.75 C 505.10 24.75 630.34 24.73 755.58 24.76 C 751.10 45.01 746.85 65.32 742.27 85.54 C 736.99 92.10 730.81 97.95 725.20 104.26 C 627.64 209.24 530.11 314.26 432.52 419.21 C 512.03 419.29 591.54 419.24 671.06 419.24 C 664.78 448.77 658.37 478.28 651.92 507.77 C 520.67 507.71 389.42 507.78 258.17 507.74 C 262.49 487.50 266.77 467.25 271.05 447.00 C 271.27 445.79 271.64 444.58 272.60 443.75 C 375.13 335.50 477.66 227.25 580.19 119.00 C 581.93 117.21 583.62 115.38 585.28 113.51 C 510.43 113.42 435.56 113.66 360.71 113.39 Z" />
<path fill="#000000" opacity="1.00" d=" M 2349.59 113.77 C 2364.65 111.30 2381.19 117.34 2390.03 130.02 C 2401.75 145.80 2400.22 170.21 2385.67 183.73 C 2373.81 195.88 2354.31 198.98 2338.97 192.08 C 2332.37 189.10 2326.89 184.11 2322.31 178.59 C 2311.32 164.50 2311.97 142.87 2323.17 129.09 C 2329.65 120.96 2339.25 115.22 2349.59 113.77 M 2348.42 120.59 C 2332.03 123.97 2319.40 140.28 2321.12 157.09 C 2321.65 169.81 2330.70 180.77 2341.87 186.13 C 2352.96 191.11 2366.77 189.96 2376.64 182.72 C 2382.37 178.35 2387.30 172.60 2389.51 165.64 C 2393.96 152.27 2389.73 136.25 2378.57 127.44 C 2370.22 120.76 2358.82 118.32 2348.42 120.59 Z" />
<path fill="#000000" opacity="1.00" d=" M 2339.00 129.50 C 2346.01 129.56 2353.07 129.23 2360.05 130.13 C 2365.91 130.88 2371.50 135.79 2371.38 142.01 C 2372.16 148.68 2367.66 154.85 2361.56 157.15 C 2367.69 164.16 2373.81 171.18 2379.90 178.23 C 2376.93 178.26 2373.98 178.26 2371.04 178.25 C 2365.58 171.86 2360.10 165.49 2354.73 159.03 C 2351.72 158.99 2348.73 158.99 2345.75 159.01 C 2345.73 165.42 2345.76 171.84 2345.73 178.26 C 2343.46 178.25 2341.22 178.25 2339.00 178.24 C 2339.00 161.99 2338.99 145.75 2339.00 129.50 M 2345.75 135.51 C 2345.74 141.50 2345.74 147.49 2345.75 153.49 C 2350.00 153.45 2354.37 153.85 2358.52 152.64 C 2364.38 150.80 2366.28 142.21 2362.18 137.87 C 2357.54 134.14 2351.19 135.90 2345.75 135.51 Z" />
<path fill="#000000" opacity="1.00" d=" M 833.88 162.93 C 854.98 156.60 877.12 154.15 899.10 154.31 C 919.06 154.66 939.28 156.71 958.16 163.57 C 973.13 168.94 987.52 176.78 998.68 188.28 C 1008.72 198.09 1016.00 210.58 1019.96 224.03 C 1025.13 240.97 1025.13 259.24 1021.36 276.47 C 1017.69 292.80 1010.15 308.48 998.29 320.45 C 979.20 340.05 953.31 351.16 927.42 358.63 C 883.75 370.99 838.09 373.98 792.92 374.74 C 791.37 382.49 792.80 390.52 794.55 398.12 C 797.76 411.87 807.54 423.54 819.85 430.20 C 832.31 437.25 846.81 439.77 860.99 439.76 C 880.96 440.11 900.81 436.46 919.99 431.12 C 939.75 425.50 959.07 418.04 977.05 408.05 C 971.47 434.67 965.92 461.31 960.25 487.91 C 933.11 501.43 903.51 509.69 873.53 513.77 C 849.35 516.87 824.71 517.31 800.58 513.55 C 770.77 508.80 741.67 495.38 720.94 473.08 C 709.47 460.70 700.71 445.84 695.39 429.83 C 687.97 408.11 685.58 384.90 686.70 362.04 C 688.25 324.49 698.67 287.21 717.67 254.73 C 734.37 226.15 758.03 201.62 786.33 184.40 C 801.21 175.32 817.14 167.87 833.88 162.93 M 862.55 228.32 C 845.93 234.49 831.73 246.21 821.30 260.42 C 810.80 274.85 803.79 291.64 799.83 308.99 C 816.59 308.94 833.41 308.51 850.04 306.21 C 865.56 304.02 881.20 300.55 895.09 293.03 C 904.95 287.68 913.96 279.75 918.19 269.12 C 921.24 261.25 922.41 252.27 919.77 244.12 C 916.68 234.98 908.37 228.26 899.15 225.92 C 887.09 222.86 874.20 224.22 862.55 228.32 Z" />
<path fill="#000000" opacity="1.00" d=" M 1262.92 159.98 C 1282.87 153.43 1304.53 152.72 1325.03 157.00 C 1341.04 160.37 1356.36 168.55 1366.63 181.50 C 1379.78 197.54 1384.89 218.63 1385.51 239.00 C 1386.11 248.18 1384.86 257.35 1383.57 266.42 C 1380.13 290.47 1374.43 314.11 1369.49 337.87 C 1357.37 394.49 1345.31 451.13 1333.16 507.75 C 1297.09 507.76 1261.02 507.73 1224.95 507.76 C 1234.91 460.29 1245.15 412.88 1255.21 365.42 C 1260.13 341.60 1265.76 317.91 1269.97 293.94 C 1271.26 286.66 1272.68 279.37 1272.98 271.98 C 1273.17 261.48 1270.20 250.18 1262.02 243.07 C 1254.06 236.39 1242.87 235.15 1232.91 236.60 C 1217.82 238.92 1204.56 247.46 1193.04 257.07 C 1173.63 273.88 1158.80 295.84 1149.83 319.86 C 1145.92 330.08 1144.08 340.91 1141.78 351.56 C 1130.74 403.62 1119.70 455.68 1108.67 507.74 C 1072.02 507.77 1035.36 507.73 998.71 507.76 C 1009.16 459.60 1019.79 411.49 1030.30 363.35 C 1044.78 296.80 1060.62 230.41 1069.22 162.77 C 1104.75 162.73 1140.28 162.75 1175.81 162.76 C 1173.38 185.02 1170.73 207.26 1167.50 229.42 C 1170.18 227.42 1171.83 224.43 1174.07 221.99 C 1197.56 194.09 1227.92 171.13 1262.92 159.98 Z" />
<path fill="#000000" opacity="1.00" d=" M 1646.39 159.48 C 1667.96 152.86 1691.44 152.60 1713.18 158.59 C 1728.51 162.91 1742.55 172.24 1751.59 185.46 C 1764.84 204.36 1768.42 228.30 1767.35 250.91 C 1765.41 271.88 1761.17 292.55 1756.71 313.11 C 1742.89 377.98 1728.94 442.82 1715.17 507.70 C 1679.06 507.81 1642.94 507.73 1606.83 507.74 C 1620.72 442.53 1634.64 377.32 1648.51 312.10 C 1650.66 300.45 1653.16 288.84 1654.56 277.06 C 1655.86 265.49 1653.73 252.44 1644.98 244.07 C 1638.72 237.79 1629.45 235.98 1620.91 236.04 C 1607.95 236.37 1595.81 242.05 1585.26 249.24 C 1570.72 259.10 1558.59 272.24 1548.82 286.77 C 1538.56 302.04 1530.65 319.03 1526.79 337.06 C 1514.73 393.96 1502.67 450.86 1490.62 507.76 C 1453.96 507.73 1417.31 507.76 1380.65 507.74 C 1390.20 463.63 1399.95 419.57 1409.58 375.48 C 1424.81 304.86 1442.00 234.52 1451.18 162.77 C 1486.70 162.71 1522.22 162.77 1557.74 162.75 C 1555.27 184.98 1552.84 207.23 1549.33 229.33 C 1552.98 226.71 1555.12 222.53 1558.26 219.35 C 1581.78 192.28 1611.86 170.09 1646.39 159.48 Z" />
<path fill="#000000" opacity="1.00" d=" M 2143.53 155.82 C 2180.06 152.20 2218.60 154.35 2251.97 170.97 C 2268.94 179.28 2284.13 191.37 2295.55 206.47 C 2314.64 231.34 2323.11 262.99 2323.75 294.01 C 2324.35 326.99 2318.94 360.20 2307.00 390.99 C 2297.21 416.17 2282.97 439.80 2264.35 459.44 C 2243.06 481.53 2215.74 497.30 2186.54 506.37 C 2163.81 513.72 2139.79 516.14 2116.00 516.27 C 2096.11 516.07 2076.07 514.01 2057.05 507.97 C 2041.42 502.95 2026.45 495.57 2013.49 485.44 C 2000.52 475.34 1989.81 462.43 1982.01 447.98 C 1972.09 429.51 1966.80 408.80 1964.92 387.99 C 1963.05 364.80 1964.79 341.37 1969.45 318.60 C 1976.59 282.89 1992.32 248.78 2015.81 220.87 C 2047.42 183.14 2094.98 160.80 2143.53 155.82 M 2153.55 236.72 C 2132.37 239.38 2114.90 253.93 2102.54 270.54 C 2089.98 287.85 2081.98 308.14 2077.36 328.93 C 2073.36 347.68 2071.26 367.14 2073.87 386.23 C 2075.97 401.83 2083.48 417.31 2096.78 426.28 C 2111.83 436.67 2131.85 436.22 2148.58 430.50 C 2159.98 426.41 2169.81 418.84 2178.13 410.18 C 2199.06 387.65 2209.10 357.17 2213.16 327.19 C 2215.36 308.27 2216.54 288.40 2209.93 270.18 C 2205.89 258.49 2197.94 247.94 2187.03 241.92 C 2176.98 236.09 2164.85 235.16 2153.55 236.72 Z" />
<path fill="#000000" opacity="1.00" d=" M 1828.67 199.21 C 1831.34 187.06 1833.64 174.82 1836.60 162.72 C 1873.01 162.79 1909.42 162.72 1945.83 162.76 C 1930.12 235.89 1914.61 309.06 1898.71 382.14 C 1896.62 391.93 1895.00 401.92 1895.56 411.96 C 1895.94 417.13 1898.07 422.47 1902.40 425.59 C 1909.13 430.40 1917.74 431.92 1925.88 431.36 C 1936.45 430.81 1946.92 428.51 1956.75 424.60 C 1950.89 451.28 1945.54 478.07 1939.68 504.75 C 1916.27 510.72 1892.20 514.82 1867.98 514.51 C 1848.98 514.34 1829.27 510.61 1813.44 499.54 C 1800.52 490.85 1791.42 477.10 1787.55 462.10 C 1782.19 443.10 1784.00 423.12 1786.49 403.82 C 1788.85 384.70 1792.68 365.80 1796.95 347.03 C 1807.38 297.73 1818.12 248.49 1828.67 199.21 Z" />
<path fill="#000000" opacity="1.00" d=" M 24.14 207.21 C 38.26 196.52 57.17 192.73 74.38 196.72 C 88.50 199.89 101.39 208.33 109.85 220.09 C 118.64 232.05 122.57 247.42 120.73 262.13 C 119.02 277.06 111.28 291.17 99.69 300.73 C 88.45 310.18 73.67 315.26 59.00 314.77 C 41.30 314.50 24.02 305.89 13.05 292.03 C 4.73 281.75 0.28 268.65 0.00 255.47 L 0.00 254.50 C 0.21 236.11 9.28 218.08 24.14 207.21 Z" />
</g>
</svg>
