<?xml version="1.0" encoding="UTF-8" ?>
<!DOCTYPE svg PUBLIC "-//W3C//DTD SVG 1.1//EN" "http://www.w3.org/Graphics/SVG/1.1/DTD/svg11.dtd">
<svg width="1800pt" height="372pt" viewBox="0 0 1800 372" version="1.1" xmlns="http://www.w3.org/2000/svg">
<g id="#000000ff">
</g>
<g id="#fdc941ff">
<path fill="#fdc941" opacity="1.00" d=" M 160.44 19.29 C 163.35 16.41 168.65 16.55 171.43 19.56 C 191.87 37.76 212.28 55.99 232.64 74.27 C 232.79 68.17 232.60 62.06 232.74 55.96 C 232.82 52.29 236.45 49.31 240.07 49.69 C 248.70 49.67 257.34 49.68 265.98 49.68 C 269.06 49.29 272.38 51.76 272.26 55.01 C 272.58 73.04 272.22 91.09 272.48 109.13 C 286.35 121.05 299.70 133.56 313.47 145.59 C 316.56 148.63 320.74 151.31 321.45 155.94 C 322.05 160.78 317.84 165.18 313.04 165.13 C 305.98 165.28 298.91 165.01 291.85 165.21 C 291.97 214.46 292.02 263.71 291.70 312.96 C 291.67 319.35 292.33 326.62 287.77 331.80 C 283.83 336.88 276.97 337.40 271.04 337.31 C 207.36 337.25 143.68 337.30 80.00 337.29 C 71.93 337.38 63.71 334.79 57.98 328.93 C 53.40 324.83 52.26 318.39 48.07 314.00 C 41.07 306.55 38.29 296.02 38.70 285.99 C 38.70 245.71 38.49 205.44 38.53 165.17 C 32.01 165.08 25.49 165.20 18.98 165.16 C 14.85 165.26 10.88 162.28 10.18 158.16 C 9.43 154.09 12.27 150.58 15.16 148.10 C 63.48 105.05 111.89 62.08 160.44 19.29 M 163.93 49.88 C 127.98 82.48 91.74 114.77 55.60 147.16 C 55.47 184.44 55.97 221.71 55.83 258.98 C 56.40 270.49 55.96 282.02 56.23 293.53 C 56.30 298.10 59.17 302.56 63.46 304.24 C 68.32 305.64 74.43 305.04 77.53 300.55 C 81.51 294.42 79.26 286.79 80.06 279.96 C 80.32 269.01 86.38 258.52 95.54 252.57 C 103.88 246.86 114.32 245.31 124.24 245.82 C 125.56 235.96 131.04 226.90 139.14 221.14 C 147.81 214.54 159.17 213.54 169.70 213.79 C 170.99 207.84 178.74 204.16 183.67 208.38 C 188.23 211.21 187.46 216.94 187.38 221.54 C 198.24 221.62 209.10 221.45 219.96 221.57 C 224.59 221.43 229.48 225.15 229.41 230.00 C 229.75 234.57 225.51 238.70 221.00 238.63 C 209.80 238.72 198.60 238.67 187.40 238.63 C 187.39 247.59 187.39 256.55 187.43 265.50 C 198.59 265.50 209.76 265.38 220.93 265.58 C 226.45 265.85 231.03 271.56 229.16 277.00 C 227.70 280.61 223.96 283.30 219.97 282.83 C 209.17 282.79 198.37 282.89 187.58 282.76 C 187.17 287.22 188.63 292.58 185.02 296.08 C 181.89 299.66 175.79 299.73 172.42 296.45 C 170.87 295.15 170.36 293.11 169.61 291.33 C 163.18 291.31 156.55 291.76 150.39 289.54 C 138.20 285.59 128.28 275.17 125.11 262.73 C 121.74 262.71 118.38 262.59 115.02 262.69 C 108.43 263.01 101.54 266.42 98.71 272.64 C 94.31 280.86 97.99 290.57 95.16 299.20 C 93.42 308.84 86.24 316.48 77.71 320.80 C 143.57 320.53 209.44 320.83 275.29 320.65 C 275.34 262.66 275.58 204.66 275.40 146.67 C 239.28 114.75 203.25 82.72 167.40 50.49 C 166.52 49.50 165.00 48.45 163.93 49.88 Z" />
<path fill="#fdc941" opacity="1.00" d=" M 136.35 142.96 C 136.39 134.48 136.31 126.00 136.39 117.52 C 144.98 117.45 153.57 117.47 162.16 117.49 C 162.20 125.98 162.16 134.47 162.20 142.96 C 153.58 143.14 144.97 142.93 136.35 142.96 Z" />
<path fill="#fdc941" opacity="1.00" d=" M 168.83 117.52 C 177.47 117.46 186.10 117.45 194.74 117.52 C 194.73 126.00 194.77 134.47 194.72 142.95 C 186.09 143.04 177.44 143.11 168.81 142.90 C 168.84 134.44 168.82 125.98 168.83 117.52 Z" />
<path fill="#fdc941" opacity="1.00" d=" M 136.35 150.25 C 144.95 150.22 153.54 150.25 162.14 150.24 C 162.22 158.80 162.16 167.37 162.16 175.93 C 153.56 175.92 144.96 175.96 136.36 175.90 C 136.37 167.35 136.36 158.80 136.35 150.25 Z" />
<path fill="#fdc941" opacity="1.00" d=" M 168.83 150.29 C 177.46 150.17 186.08 150.28 194.71 150.24 C 194.72 158.80 194.73 167.36 194.70 175.92 C 186.08 175.93 177.45 175.98 168.82 175.88 C 168.83 167.35 168.82 158.82 168.83 150.29 Z" />
</g>
<g id="#ffffffff">
<path fill="#ffffff" opacity="1.00" d=" M 356.08 188.18 C 366.39 182.50 378.46 181.00 390.07 181.27 C 406.71 181.32 424.44 185.95 435.89 198.76 C 431.23 205.17 426.58 211.60 421.93 218.02 C 421.28 218.00 419.98 217.98 419.32 217.96 C 412.17 210.63 402.31 205.89 392.01 205.53 C 384.50 205.18 376.13 205.11 369.78 209.75 C 362.81 214.25 362.15 225.34 367.92 231.07 C 370.86 234.26 375.21 235.46 379.21 236.75 C 393.57 240.52 409.08 241.27 422.14 248.97 C 431.92 253.78 438.41 263.90 440.35 274.45 C 442.15 285.76 441.15 298.07 434.97 307.98 C 429.39 317.29 419.44 323.12 409.10 325.65 C 394.66 329.12 379.30 328.94 364.97 325.02 C 351.88 321.19 339.12 313.83 331.96 301.83 C 337.05 295.39 342.36 289.13 347.48 282.72 C 348.10 282.70 349.32 282.68 349.93 282.66 C 356.78 292.48 366.99 300.24 378.90 302.52 C 387.50 304.15 397.07 304.32 404.88 299.87 C 412.51 295.44 414.13 284.83 410.44 277.33 C 408.31 273.14 403.94 270.85 399.73 269.25 C 389.72 265.56 378.93 264.76 368.85 261.34 C 358.31 258.27 347.87 252.70 341.87 243.19 C 336.17 233.81 335.07 222.02 337.59 211.47 C 339.92 201.44 347.12 193.03 356.08 188.18 Z" />
<path fill="#ffffff" opacity="1.00" d=" M 940.57 181.81 C 955.82 180.31 971.96 181.82 985.57 189.31 C 995.23 194.53 1002.17 203.68 1006.13 213.78 C 999.89 217.66 993.64 221.51 987.40 225.39 C 986.13 226.41 984.59 226.63 983.04 226.41 C 979.98 218.74 974.64 211.41 966.65 208.45 C 955.20 204.11 941.56 204.44 930.89 210.77 C 923.33 214.95 918.17 222.56 915.90 230.79 C 912.45 242.97 912.22 255.91 913.80 268.41 C 915.12 278.38 918.55 288.85 926.53 295.48 C 935.24 303.21 947.78 304.79 958.91 302.83 C 966.67 301.46 974.11 297.32 978.49 290.64 C 981.59 286.39 983.28 281.35 984.62 276.32 C 987.61 276.19 990.02 278.10 992.57 279.37 C 997.68 282.09 1002.84 284.73 1007.92 287.52 C 1004.64 297.87 999.59 308.05 991.15 315.15 C 985.15 320.83 977.23 323.81 969.48 326.18 C 952.84 329.40 934.97 328.66 919.41 321.50 C 909.57 317.13 901.07 309.83 895.42 300.64 C 885.50 285.13 883.02 266.06 883.99 247.99 C 884.59 231.79 889.30 215.31 899.67 202.59 C 909.58 190.20 925.09 183.59 940.57 181.81 Z" />
<path fill="#ffffff" opacity="1.00" d=" M 1367.00 193.10 C 1382.80 181.93 1403.34 179.46 1422.10 182.40 C 1432.57 184.03 1442.90 187.99 1450.91 195.07 C 1456.50 200.20 1460.54 206.78 1463.40 213.76 C 1456.54 218.05 1449.63 222.25 1442.79 226.55 C 1442.16 226.49 1440.91 226.37 1440.28 226.31 C 1437.52 219.78 1433.42 213.45 1427.08 209.94 C 1418.35 205.30 1407.98 204.74 1398.42 206.59 C 1389.20 208.84 1380.51 214.58 1376.19 223.22 C 1371.05 233.30 1370.14 244.91 1370.17 256.05 C 1370.37 266.67 1371.55 277.73 1376.91 287.13 C 1380.34 293.57 1386.40 298.33 1393.06 301.13 C 1403.53 304.74 1415.58 304.57 1425.61 299.66 C 1434.55 295.20 1439.69 285.77 1441.84 276.35 C 1444.86 276.16 1447.31 278.12 1449.89 279.40 C 1454.96 282.09 1460.04 284.77 1465.13 287.43 C 1461.99 297.93 1456.74 308.14 1448.25 315.29 C 1442.40 320.83 1434.67 323.68 1427.14 326.08 C 1405.76 330.47 1381.65 327.81 1364.17 313.83 C 1348.47 300.81 1341.73 279.88 1341.19 260.04 C 1340.54 244.99 1342.16 229.43 1348.71 215.69 C 1352.91 206.86 1359.00 198.82 1367.00 193.10 Z" />
<path fill="#ffffff" opacity="1.00" d=" M 531.76 183.21 C 563.40 183.22 595.05 183.21 626.69 183.22 C 626.69 191.07 626.69 198.93 626.69 206.79 C 604.48 206.79 582.27 206.79 560.06 206.79 C 560.05 217.93 560.05 229.07 560.06 240.21 C 579.47 240.21 598.89 240.22 618.31 240.21 C 618.32 247.91 618.31 255.61 618.31 263.31 C 598.89 263.31 579.47 263.33 560.06 263.30 C 560.05 276.27 560.05 289.24 560.06 302.21 C 582.79 302.21 605.52 302.21 628.26 302.21 C 628.27 310.14 628.26 318.07 628.26 326.00 C 596.09 326.00 563.93 326.00 531.76 326.00 C 531.76 278.40 531.75 230.81 531.76 183.21 Z" />
<path fill="#ffffff" opacity="1.00" d=" M 654.51 183.21 C 663.94 183.22 673.38 183.21 682.81 183.21 C 682.82 222.88 682.81 262.54 682.82 302.21 C 704.20 302.21 725.58 302.21 746.96 302.21 C 746.97 310.14 746.96 318.07 746.97 326.00 C 716.14 326.00 685.32 326.00 654.50 326.00 C 654.50 278.40 654.49 230.80 654.51 183.21 Z" />
<path fill="#ffffff" opacity="1.00" d=" M 770.27 183.22 C 801.91 183.21 833.55 183.22 865.19 183.21 C 865.19 191.07 865.19 198.93 865.19 206.79 C 842.99 206.78 820.79 206.79 798.59 206.78 C 798.59 217.93 798.59 229.07 798.59 240.22 C 817.99 240.21 837.39 240.21 856.79 240.21 C 856.79 247.91 856.78 255.61 856.79 263.31 C 837.38 263.32 817.98 263.31 798.57 263.32 C 798.61 276.28 798.58 289.25 798.59 302.21 C 821.31 302.21 844.02 302.21 866.74 302.21 C 866.75 310.14 866.74 318.07 866.75 326.00 C 834.59 326.00 802.42 326.00 770.26 325.99 C 770.27 278.40 770.26 230.81 770.27 183.22 Z" />
<path fill="#ffffff" opacity="1.00" d=" M 1016.35 183.22 C 1053.23 183.20 1090.10 183.22 1126.97 183.21 C 1126.98 191.14 1126.97 199.07 1126.98 207.00 C 1113.25 207.00 1099.52 207.00 1085.79 207.00 C 1085.79 246.67 1085.78 286.33 1085.79 325.99 C 1076.38 326.01 1066.97 326.00 1057.56 326.00 C 1057.56 286.34 1057.55 246.67 1057.57 207.01 C 1043.82 206.98 1030.09 207.01 1016.35 206.99 C 1016.36 199.07 1016.35 191.14 1016.35 183.22 Z" />
<path fill="#ffffff" opacity="1.00" d=" M 1149.50 183.21 C 1166.32 183.21 1183.14 183.21 1199.96 183.21 C 1210.21 183.18 1220.88 183.28 1230.50 187.30 C 1239.58 190.90 1246.63 198.86 1249.62 208.09 C 1252.50 218.33 1252.64 229.96 1247.27 239.43 C 1242.84 247.74 1234.12 252.65 1225.45 255.47 C 1225.44 256.03 1225.42 257.16 1225.41 257.72 C 1229.78 260.02 1234.06 262.91 1236.84 267.09 C 1240.15 272.20 1242.32 277.93 1244.21 283.68 C 1248.94 297.79 1253.67 311.89 1258.41 326.00 C 1248.71 326.00 1239.01 326.01 1229.32 325.99 C 1225.34 313.83 1221.36 301.68 1217.39 289.52 C 1215.10 283.04 1213.60 275.57 1208.01 271.01 C 1204.17 267.60 1198.83 266.85 1193.90 266.63 C 1188.53 266.46 1183.17 266.61 1177.81 266.56 C 1177.82 286.37 1177.81 306.18 1177.82 326.00 C 1168.38 326.00 1158.94 326.00 1149.50 326.00 C 1149.50 278.40 1149.49 230.81 1149.50 183.21 M 1177.81 205.56 C 1177.82 218.44 1177.81 231.33 1177.82 244.21 C 1186.21 244.19 1194.61 244.26 1203.02 244.19 C 1207.71 243.87 1212.71 243.56 1216.71 240.77 C 1221.88 237.86 1223.65 231.57 1223.87 226.01 C 1223.91 220.92 1223.17 215.32 1219.61 211.40 C 1215.78 206.97 1209.58 205.60 1203.97 205.59 C 1195.25 205.52 1186.53 205.58 1177.81 205.56 Z" />
<path fill="#ffffff" opacity="1.00" d=" M 1283.06 183.21 C 1292.48 183.22 1301.91 183.21 1311.34 183.22 C 1311.35 230.81 1311.34 278.40 1311.34 326.00 C 1301.91 326.00 1292.48 326.00 1283.05 326.00 C 1283.06 278.40 1283.05 230.81 1283.06 183.21 Z" />
<path fill="#ffffff" opacity="1.00" d=" M 1488.27 183.22 C 1497.71 183.22 1507.15 183.21 1516.59 183.22 C 1516.58 230.81 1516.58 278.40 1516.59 325.99 C 1507.15 326.01 1497.70 326.00 1488.27 326.00 C 1488.27 278.40 1488.27 230.81 1488.27 183.22 Z" />
<path fill="#ffffff" opacity="1.00" d=" M 1539.13 183.21 C 1576.01 183.21 1612.88 183.21 1649.76 183.22 C 1649.76 191.14 1649.75 199.07 1649.76 207.00 C 1636.03 207.01 1622.29 207.00 1608.56 207.00 C 1608.56 246.66 1608.55 286.33 1608.57 325.99 C 1599.15 326.01 1589.73 326.00 1580.32 325.99 C 1580.33 286.33 1580.32 246.67 1580.32 207.00 C 1566.59 207.00 1552.86 207.00 1539.13 207.00 C 1539.13 199.07 1539.12 191.14 1539.13 183.21 Z" />
<path fill="#ffffff" opacity="1.00" d=" M 1654.37 183.22 C 1664.48 183.19 1674.60 183.23 1684.72 183.20 C 1695.62 201.85 1706.48 220.53 1717.34 239.20 C 1717.94 239.21 1719.14 239.22 1719.75 239.22 C 1730.38 220.55 1741.06 201.91 1751.66 183.23 C 1761.56 183.20 1771.46 183.21 1781.37 183.22 C 1765.00 212.21 1748.33 241.03 1732.11 270.09 C 1731.82 288.72 1732.07 307.36 1731.99 326.00 C 1722.56 326.00 1713.13 326.00 1703.71 326.00 C 1703.70 309.67 1703.70 293.35 1703.71 277.03 C 1703.45 274.14 1704.44 270.91 1702.78 268.32 C 1686.61 239.98 1670.52 211.58 1654.37 183.22 Z" />
<path fill="#ffffff" opacity="1.00" d=" M 455.00 260.21 C 472.49 260.22 489.98 260.22 507.46 260.21 C 507.48 268.33 507.46 276.44 507.47 284.55 C 489.99 284.58 472.50 284.54 455.02 284.58 C 454.97 276.45 455.01 268.33 455.00 260.21 Z" />
</g>
</svg>
