<?xml version="1.0" encoding="UTF-8" ?>
<!DOCTYPE svg PUBLIC "-//W3C//DTD SVG 1.1//EN" "http://www.w3.org/Graphics/SVG/1.1/DTD/svg11.dtd">
<svg width="450pt" height="186pt" viewBox="0 0 450 186" version="1.1" xmlns="http://www.w3.org/2000/svg">
<g id="#fdca41fe">
<path fill="#fdca41" opacity="1.00" d=" M 82.78 9.80 C 84.20 8.23 86.87 8.11 88.31 9.71 C 98.67 18.83 108.95 28.04 119.16 37.31 C 119.80 33.50 117.75 28.69 120.36 25.48 C 124.43 24.31 128.77 25.35 132.94 24.97 C 134.91 25.10 138.54 24.26 138.78 27.12 C 138.98 36.18 138.86 45.26 138.83 54.33 C 146.02 60.79 153.22 67.25 160.44 73.67 C 161.93 75.07 163.87 76.63 163.39 78.95 C 163.47 80.93 161.52 82.11 159.82 82.49 C 156.11 82.75 152.38 82.49 148.66 82.58 C 148.74 108.57 148.83 134.56 148.48 160.55 C 148.71 165.10 144.56 169.02 140.04 168.61 C 107.68 168.66 75.31 168.61 42.95 168.64 C 39.26 168.74 35.45 167.75 32.63 165.28 C 29.72 163.04 28.82 159.27 26.44 156.58 C 23.62 153.44 22.33 149.25 22.10 145.09 C 22.01 124.25 21.83 103.41 21.90 82.57 C 17.19 82.01 11.29 84.31 7.73 80.13 C 6.92 76.01 10.76 73.70 13.34 71.30 C 36.48 50.79 59.54 30.19 82.78 9.80 M 75.94 32.81 C 60.94 46.42 45.76 59.84 30.74 73.42 C 30.25 96.58 30.82 119.82 30.71 143.01 C 30.82 145.38 30.28 148.09 31.94 150.07 C 34.37 153.85 41.28 153.02 42.36 148.48 C 43.38 143.76 41.76 138.61 44.02 134.11 C 47.24 125.98 56.53 122.07 64.85 122.84 C 65.52 118.08 68.09 113.71 71.93 110.82 C 76.22 107.25 81.99 106.88 87.32 107.04 C 88.37 104.53 91.39 101.90 94.08 103.91 C 96.88 105.05 96.33 108.28 96.43 110.71 C 102.30 110.81 108.19 110.47 114.05 110.86 C 115.75 111.54 117.65 113.01 117.43 115.07 C 117.62 117.40 115.28 119.42 113.06 119.37 C 107.50 119.46 101.94 119.37 96.38 119.38 C 96.37 123.86 96.37 128.34 96.40 132.82 C 102.24 132.90 108.11 132.58 113.95 133.00 C 118.51 133.41 118.57 140.92 113.96 141.28 C 108.13 141.60 102.29 141.32 96.46 141.39 C 96.38 144.05 97.05 147.82 93.87 148.94 C 91.15 150.32 88.21 148.35 87.37 145.69 C 84.08 145.64 80.66 145.88 77.54 144.65 C 71.58 142.59 66.92 137.45 65.24 131.40 C 61.16 131.31 56.32 130.91 53.37 134.35 C 48.87 139.40 52.31 146.77 49.39 152.45 C 47.95 156.13 44.73 158.69 41.33 160.49 C 74.35 160.28 107.37 160.49 140.38 160.39 C 140.40 131.37 140.52 102.35 140.44 73.34 C 122.10 57.08 103.71 40.89 85.58 24.40 C 82.21 27.01 79.15 30.00 75.94 32.81 Z" />
<path fill="#fdca41" opacity="1.00" d=" M 87.18 58.71 C 91.48 58.72 95.78 58.71 100.09 58.73 C 100.09 62.99 100.10 67.26 100.08 71.53 C 95.78 71.55 91.48 71.54 87.18 71.55 C 87.17 67.27 87.17 62.99 87.18 58.71 Z" />
<path fill="#fdca41" opacity="1.00" d=" M 70.83 58.72 C 75.17 58.71 79.52 58.71 83.87 58.72 C 83.85 63.00 83.87 67.27 83.86 71.55 C 79.52 71.55 75.18 71.54 70.84 71.55 C 70.82 67.27 70.82 63.00 70.83 58.72 Z" />
<path fill="#fdca41" opacity="1.00" d=" M 70.83 75.15 C 75.17 75.16 79.51 75.16 83.85 75.15 C 83.87 79.38 83.86 83.61 83.85 87.84 C 79.51 87.83 75.17 87.83 70.83 87.83 C 70.83 83.61 70.83 79.38 70.83 75.15 Z" />
<path fill="#fdca41" opacity="1.00" d=" M 87.17 75.16 C 91.47 75.15 95.77 75.16 100.07 75.17 C 100.07 79.38 100.07 83.60 100.07 87.82 C 95.77 87.84 91.47 87.83 87.17 87.83 C 87.17 83.61 87.17 79.38 87.17 75.16 Z" />
</g>
<g id="#ffffffff">
<path fill="#ffffff" opacity="1.00" d=" M 163.43 92.50 C 169.15 90.08 176.56 90.64 181.20 95.06 C 180.08 96.63 178.95 98.18 177.82 99.74 C 174.77 97.09 170.27 95.64 166.45 97.46 C 164.08 98.53 164.43 102.29 166.76 103.19 C 170.89 104.81 175.82 104.53 179.40 107.48 C 184.35 111.73 182.92 121.24 176.61 123.47 C 170.10 125.76 161.70 124.44 157.42 118.62 C 158.68 117.05 159.95 115.49 161.23 113.93 C 164.20 117.98 170.88 121.09 175.07 117.14 C 176.26 115.29 175.83 112.26 173.55 111.47 C 169.46 109.79 164.53 109.99 161.09 106.87 C 156.80 102.93 157.93 94.78 163.43 92.50 Z" />
<path fill="#ffffff" opacity="1.00" d=" M 188.17 91.58 C 190.97 91.58 193.77 91.58 196.57 91.57 C 199.44 99.62 202.09 107.76 205.00 115.80 C 207.87 107.75 210.54 99.63 213.36 91.57 C 216.10 91.58 218.84 91.58 221.58 91.58 C 221.60 102.38 221.58 113.19 221.59 124.00 C 219.53 124.00 217.47 124.00 215.41 124.00 C 215.31 116.68 215.63 109.35 215.23 102.05 C 212.49 109.31 210.08 116.68 207.49 124.00 C 205.68 124.00 203.87 124.00 202.06 124.00 C 199.39 116.70 197.18 109.23 194.19 102.06 C 194.02 109.37 194.17 116.68 194.12 124.00 C 192.13 124.00 190.15 124.00 188.17 124.00 C 188.18 113.19 188.17 102.38 188.17 91.58 Z" />
<path fill="#ffffff" opacity="1.00" d=" M 237.40 91.57 C 240.14 91.58 242.89 91.58 245.63 91.57 C 249.41 102.36 253.09 113.19 256.85 123.99 C 254.57 124.00 252.30 124.00 250.03 124.00 C 249.22 121.53 248.41 119.07 247.62 116.60 C 243.50 116.60 239.38 116.60 235.26 116.60 C 234.47 119.07 233.67 121.54 232.85 124.00 C 230.62 124.00 228.40 124.00 226.17 123.99 C 229.95 113.19 233.62 102.36 237.40 91.57 M 237.03 111.13 C 239.95 111.13 242.88 111.13 245.80 111.13 C 244.35 106.73 242.99 102.30 241.41 97.95 C 239.81 102.30 238.48 106.74 237.03 111.13 Z" />
<path fill="#ffffff" opacity="1.00" d=" M 261.39 124.00 C 261.40 113.19 261.39 102.38 261.40 91.58 C 267.21 91.84 273.14 90.95 278.87 92.21 C 284.26 93.50 286.31 100.78 283.19 105.08 C 282.05 106.64 280.22 107.40 278.54 108.21 C 283.74 111.70 283.78 118.71 286.15 123.99 C 283.92 124.00 281.70 124.00 279.48 124.00 C 278.10 120.18 277.22 116.17 275.49 112.50 C 273.94 109.83 270.42 110.77 267.88 110.54 C 267.88 115.03 267.88 119.51 267.88 124.00 C 265.72 124.00 263.55 124.00 261.39 124.00 M 267.88 96.75 C 267.88 99.63 267.88 102.51 267.88 105.39 C 270.28 105.38 272.69 105.51 275.08 105.27 C 279.07 104.90 279.47 98.33 275.87 97.08 C 273.26 96.45 270.54 96.83 267.88 96.75 Z" />
<path fill="#ffffff" opacity="1.00" d=" M 288.12 91.58 C 296.49 91.58 304.87 91.57 313.24 91.58 C 313.24 93.39 313.24 95.21 313.24 97.03 C 310.12 97.03 306.99 97.03 303.87 97.03 C 303.87 106.02 303.87 115.01 303.87 124.00 C 301.71 124.00 299.56 124.00 297.41 124.00 C 297.42 115.01 297.40 106.02 297.42 97.03 C 294.32 97.03 291.22 97.03 288.12 97.03 C 288.11 95.21 288.11 93.39 288.12 91.58 Z" />
<path fill="#ffffff" opacity="1.00" d=" M 239.19 142.11 C 243.46 131.89 261.02 131.01 265.43 141.52 C 263.74 142.55 262.04 143.58 260.35 144.61 C 258.12 138.59 248.78 137.96 245.69 143.50 C 243.72 147.62 243.81 152.60 245.13 156.91 C 246.67 161.66 252.87 163.08 256.97 160.88 C 259.01 159.81 259.77 157.55 260.62 155.57 C 262.37 156.47 264.12 157.38 265.85 158.32 C 264.66 161.39 262.94 164.53 259.83 166.01 C 253.22 169.06 243.93 167.64 240.01 161.03 C 236.78 155.36 236.74 148.07 239.19 142.11 Z" />
<path fill="#ffffff" opacity="1.00" d=" M 350.09 135.17 C 356.73 132.75 365.97 134.22 368.97 141.43 C 367.28 142.52 365.57 143.58 363.86 144.64 C 361.75 138.95 353.32 137.98 349.73 142.68 C 347.10 146.77 347.27 152.16 348.55 156.68 C 350.09 161.94 357.34 163.42 361.41 160.22 C 362.85 159.07 363.34 157.20 364.08 155.58 C 365.83 156.46 367.57 157.35 369.32 158.25 C 368.16 161.67 366.05 165.05 362.52 166.39 C 356.50 168.64 348.65 167.69 344.48 162.41 C 340.99 158.07 340.65 152.12 341.31 146.81 C 341.95 141.77 345.17 136.89 350.09 135.17 Z" />
<path fill="#ffffff" opacity="1.00" d=" M 157.64 134.56 C 164.85 134.56 172.06 134.56 179.28 134.56 C 179.28 136.37 179.28 138.18 179.28 139.99 C 174.24 139.99 169.20 139.99 164.16 139.99 C 164.16 142.49 164.16 144.99 164.16 147.50 C 168.56 147.47 172.96 147.49 177.37 147.48 C 177.37 149.26 177.37 151.03 177.38 152.81 C 172.97 152.82 168.56 152.82 164.16 152.81 C 164.16 155.74 164.16 158.66 164.15 161.59 C 169.31 161.56 174.46 161.58 179.62 161.58 C 179.62 163.38 179.62 165.19 179.62 167.00 C 172.29 167.00 164.97 167.00 157.64 167.00 C 157.64 156.19 157.64 145.37 157.64 134.56 Z" />
<path fill="#ffffff" opacity="1.00" d=" M 185.39 167.00 C 185.40 156.18 185.39 145.37 185.40 134.56 C 187.56 134.56 189.72 134.56 191.88 134.57 C 191.88 143.57 191.89 152.57 191.88 161.57 C 196.74 161.58 201.60 161.57 206.47 161.58 C 206.47 163.38 206.47 165.19 206.47 167.00 C 199.44 167.00 192.42 167.00 185.39 167.00 Z" />
<path fill="#ffffff" opacity="1.00" d=" M 211.64 134.56 C 218.85 134.56 226.06 134.56 233.28 134.56 C 233.27 136.37 233.28 138.18 233.28 139.99 C 228.24 139.99 223.20 139.99 218.16 139.99 C 218.15 142.49 218.16 144.99 218.16 147.50 C 222.56 147.47 226.96 147.49 231.37 147.49 C 231.37 149.26 231.37 151.03 231.38 152.81 C 226.97 152.82 222.56 152.82 218.16 152.81 C 218.16 155.74 218.16 158.66 218.15 161.59 C 223.31 161.56 228.46 161.58 233.62 161.58 C 233.62 163.38 233.62 165.19 233.62 167.00 C 226.29 167.00 218.97 167.00 211.64 167.00 C 211.64 156.19 211.64 145.37 211.64 134.56 Z" />
<path fill="#ffffff" opacity="1.00" d=" M 267.58 134.56 C 275.96 134.56 284.35 134.56 292.74 134.56 C 292.74 136.37 292.74 138.18 292.75 140.00 C 289.64 140.00 286.53 140.00 283.42 140.01 C 283.43 149.00 283.42 158.00 283.42 167.00 C 281.27 167.00 279.12 167.00 276.97 167.00 C 276.97 158.00 276.97 149.00 276.97 140.00 C 273.84 140.00 270.70 140.00 267.58 140.00 C 267.57 138.19 267.57 136.37 267.58 134.56 Z" />
<path fill="#ffffff" opacity="1.00" d=" M 297.64 134.56 C 303.36 134.80 309.18 134.01 314.83 135.11 C 320.35 136.20 322.57 143.40 319.63 147.85 C 318.52 149.57 316.53 150.32 314.79 151.22 C 320.04 154.65 320.01 161.74 322.43 167.00 C 320.19 167.00 317.96 167.00 315.74 167.00 C 314.35 163.14 313.48 159.08 311.69 155.38 C 310.08 152.85 306.66 153.78 304.16 153.53 C 304.15 158.02 304.16 162.51 304.16 167.00 C 301.98 167.00 299.81 167.00 297.64 167.00 C 297.64 156.19 297.64 145.37 297.64 134.56 M 304.16 139.72 C 304.15 142.61 304.15 145.50 304.16 148.39 C 307.78 148.26 314.82 149.72 314.52 144.00 C 314.65 138.40 307.76 139.87 304.16 139.72 Z" />
<path fill="#ffffff" opacity="1.00" d=" M 327.93 134.56 C 330.09 134.56 332.25 134.56 334.42 134.56 C 334.43 145.37 334.42 156.19 334.42 167.00 C 332.25 167.00 330.09 167.00 327.93 167.00 C 327.93 156.19 327.92 145.37 327.93 134.56 Z" />
<path fill="#ffffff" opacity="1.00" d=" M 374.39 167.00 C 374.40 156.18 374.39 145.37 374.40 134.56 C 376.55 134.56 378.72 134.56 380.88 134.57 C 380.89 145.38 380.88 156.19 380.88 167.00 C 378.72 167.00 376.55 167.00 374.39 167.00 Z" />
<path fill="#ffffff" opacity="1.00" d=" M 386.12 134.57 C 394.50 134.56 402.88 134.56 411.26 134.56 C 411.26 136.37 411.26 138.18 411.26 140.00 C 408.13 140.00 405.01 140.00 401.88 140.00 C 401.88 149.00 401.88 158.00 401.88 167.00 C 399.73 167.00 397.57 167.00 395.42 167.00 C 395.43 158.00 395.42 149.00 395.43 140.00 C 392.32 140.00 389.22 140.00 386.12 140.00 C 386.11 138.19 386.11 136.37 386.12 134.57 Z" />
<path fill="#ffffff" opacity="1.00" d=" M 412.07 134.58 C 414.39 134.56 416.71 134.56 419.03 134.56 C 421.60 138.91 424.05 143.34 426.71 147.63 C 429.26 143.31 431.70 138.92 434.19 134.57 C 436.46 134.56 438.72 134.56 441.00 134.58 C 437.34 141.26 433.25 147.73 429.83 154.53 C 429.66 158.68 429.82 162.84 429.77 167.00 C 427.61 167.00 425.45 167.00 423.30 167.00 C 422.73 161.64 424.85 155.55 421.38 150.90 C 418.25 145.47 415.17 140.02 412.07 134.58 Z" />
</g>
</svg>
